<mxfile host="Electron" modified="2024-09-23T19:59:46.861Z" agent="Mozilla/5.0 (Windows NT 10.0; Win64; x64) AppleWebKit/537.36 (KHTML, like Gecko) draw.io/24.6.1 Chrome/124.0.6367.207 Electron/30.0.6 Safari/537.36" etag="oRz7_iND1ZUmvwdtRAYX" version="24.6.1" type="device">
  <diagram id="C5RBs43oDa-KdzZeNtuy" name="Page-1">
    <mxGraphModel dx="5337" dy="3259" grid="1" gridSize="10" guides="1" tooltips="1" connect="1" arrows="1" fold="1" page="1" pageScale="1" pageWidth="827" pageHeight="1169" math="0" shadow="0">
      <root>
        <mxCell id="WIyWlLk6GJQsqaUBKTNV-0" />
        <mxCell id="WIyWlLk6GJQsqaUBKTNV-1" parent="WIyWlLk6GJQsqaUBKTNV-0" />
        <mxCell id="mfoKoCKj8GL2P2GgwyJW-8" value="" style="ellipse;whiteSpace=wrap;html=1;aspect=fixed;fontSize=38;fillColor=#0050ef;fontColor=#ffffff;strokeColor=#001DBC;" vertex="1" parent="WIyWlLk6GJQsqaUBKTNV-1">
          <mxGeometry x="584" y="260" width="60" height="60" as="geometry" />
        </mxCell>
        <mxCell id="mfoKoCKj8GL2P2GgwyJW-9" value="" style="ellipse;whiteSpace=wrap;html=1;aspect=fixed;fontSize=38;fillColor=#0050ef;fontColor=#ffffff;strokeColor=#001DBC;" vertex="1" parent="WIyWlLk6GJQsqaUBKTNV-1">
          <mxGeometry x="584" y="340" width="60" height="60" as="geometry" />
        </mxCell>
        <mxCell id="mfoKoCKj8GL2P2GgwyJW-39" style="rounded=0;orthogonalLoop=1;jettySize=auto;html=1;entryX=0;entryY=0.5;entryDx=0;entryDy=0;endArrow=none;endFill=0;fontSize=38;" edge="1" parent="WIyWlLk6GJQsqaUBKTNV-1" source="mfoKoCKj8GL2P2GgwyJW-10" target="mfoKoCKj8GL2P2GgwyJW-17">
          <mxGeometry relative="1" as="geometry" />
        </mxCell>
        <mxCell id="mfoKoCKj8GL2P2GgwyJW-10" value="" style="ellipse;whiteSpace=wrap;html=1;aspect=fixed;fontSize=38;fillColor=#0050ef;fontColor=#ffffff;strokeColor=#001DBC;" vertex="1" parent="WIyWlLk6GJQsqaUBKTNV-1">
          <mxGeometry x="584" y="420" width="60" height="60" as="geometry" />
        </mxCell>
        <mxCell id="mfoKoCKj8GL2P2GgwyJW-11" value="" style="ellipse;whiteSpace=wrap;html=1;aspect=fixed;fontSize=38;fillColor=#0050ef;fontColor=#ffffff;strokeColor=#001DBC;" vertex="1" parent="WIyWlLk6GJQsqaUBKTNV-1">
          <mxGeometry x="584" y="500" width="60" height="60" as="geometry" />
        </mxCell>
        <mxCell id="mfoKoCKj8GL2P2GgwyJW-12" value="" style="ellipse;whiteSpace=wrap;html=1;aspect=fixed;fontSize=38;fillColor=#0050ef;fontColor=#ffffff;strokeColor=#001DBC;" vertex="1" parent="WIyWlLk6GJQsqaUBKTNV-1">
          <mxGeometry x="584" y="580" width="60" height="60" as="geometry" />
        </mxCell>
        <mxCell id="mfoKoCKj8GL2P2GgwyJW-20" style="rounded=0;orthogonalLoop=1;jettySize=auto;html=1;exitX=1;exitY=0.5;exitDx=0;exitDy=0;entryX=0;entryY=0.5;entryDx=0;entryDy=0;endArrow=none;endFill=0;fontSize=38;" edge="1" parent="WIyWlLk6GJQsqaUBKTNV-1" source="mfoKoCKj8GL2P2GgwyJW-13" target="mfoKoCKj8GL2P2GgwyJW-18">
          <mxGeometry relative="1" as="geometry" />
        </mxCell>
        <mxCell id="mfoKoCKj8GL2P2GgwyJW-13" value="" style="ellipse;whiteSpace=wrap;html=1;aspect=fixed;fontSize=38;fillColor=#0050ef;fontColor=#ffffff;strokeColor=#001DBC;" vertex="1" parent="WIyWlLk6GJQsqaUBKTNV-1">
          <mxGeometry x="584" y="190" width="60" height="60" as="geometry" />
        </mxCell>
        <mxCell id="mfoKoCKj8GL2P2GgwyJW-14" value="" style="ellipse;whiteSpace=wrap;html=1;aspect=fixed;fontSize=38;fillColor=#a20025;fontColor=#ffffff;strokeColor=#6F0000;" vertex="1" parent="WIyWlLk6GJQsqaUBKTNV-1">
          <mxGeometry x="944" y="260" width="60" height="60" as="geometry" />
        </mxCell>
        <mxCell id="mfoKoCKj8GL2P2GgwyJW-15" value="" style="ellipse;whiteSpace=wrap;html=1;aspect=fixed;fontSize=38;fillColor=#a20025;fontColor=#ffffff;strokeColor=#6F0000;" vertex="1" parent="WIyWlLk6GJQsqaUBKTNV-1">
          <mxGeometry x="944" y="340" width="60" height="60" as="geometry" />
        </mxCell>
        <mxCell id="mfoKoCKj8GL2P2GgwyJW-16" value="" style="ellipse;whiteSpace=wrap;html=1;aspect=fixed;fontSize=38;fillColor=#a20025;fontColor=#ffffff;strokeColor=#6F0000;" vertex="1" parent="WIyWlLk6GJQsqaUBKTNV-1">
          <mxGeometry x="944" y="420" width="60" height="60" as="geometry" />
        </mxCell>
        <mxCell id="mfoKoCKj8GL2P2GgwyJW-17" value="" style="ellipse;whiteSpace=wrap;html=1;aspect=fixed;fontSize=38;fillColor=#a20025;fontColor=#ffffff;strokeColor=#6F0000;" vertex="1" parent="WIyWlLk6GJQsqaUBKTNV-1">
          <mxGeometry x="944" y="500" width="60" height="60" as="geometry" />
        </mxCell>
        <mxCell id="mfoKoCKj8GL2P2GgwyJW-18" value="" style="ellipse;whiteSpace=wrap;html=1;aspect=fixed;fontSize=38;fillColor=#a20025;fontColor=#ffffff;strokeColor=#6F0000;" vertex="1" parent="WIyWlLk6GJQsqaUBKTNV-1">
          <mxGeometry x="944" y="580" width="60" height="60" as="geometry" />
        </mxCell>
        <mxCell id="mfoKoCKj8GL2P2GgwyJW-19" value="" style="ellipse;whiteSpace=wrap;html=1;aspect=fixed;fontSize=38;fillColor=#a20025;fontColor=#ffffff;strokeColor=#6F0000;" vertex="1" parent="WIyWlLk6GJQsqaUBKTNV-1">
          <mxGeometry x="944" y="190" width="60" height="60" as="geometry" />
        </mxCell>
        <mxCell id="mfoKoCKj8GL2P2GgwyJW-23" style="rounded=0;orthogonalLoop=1;jettySize=auto;html=1;exitX=1;exitY=0.5;exitDx=0;exitDy=0;entryX=0;entryY=0.5;entryDx=0;entryDy=0;endArrow=none;endFill=0;fontSize=38;" edge="1" parent="WIyWlLk6GJQsqaUBKTNV-1" source="mfoKoCKj8GL2P2GgwyJW-8" target="mfoKoCKj8GL2P2GgwyJW-14">
          <mxGeometry relative="1" as="geometry">
            <mxPoint x="654" y="230" as="sourcePoint" />
            <mxPoint x="954" y="620" as="targetPoint" />
          </mxGeometry>
        </mxCell>
        <mxCell id="mfoKoCKj8GL2P2GgwyJW-25" style="rounded=0;orthogonalLoop=1;jettySize=auto;html=1;exitX=1;exitY=0.5;exitDx=0;exitDy=0;endArrow=none;endFill=0;fontSize=38;" edge="1" parent="WIyWlLk6GJQsqaUBKTNV-1" source="mfoKoCKj8GL2P2GgwyJW-9">
          <mxGeometry relative="1" as="geometry">
            <mxPoint x="654" y="300" as="sourcePoint" />
            <mxPoint x="944" y="610" as="targetPoint" />
          </mxGeometry>
        </mxCell>
        <mxCell id="mfoKoCKj8GL2P2GgwyJW-26" style="rounded=0;orthogonalLoop=1;jettySize=auto;html=1;exitX=1;exitY=0.5;exitDx=0;exitDy=0;entryX=0;entryY=0.5;entryDx=0;entryDy=0;endArrow=none;endFill=0;fontSize=38;" edge="1" parent="WIyWlLk6GJQsqaUBKTNV-1" source="mfoKoCKj8GL2P2GgwyJW-10" target="mfoKoCKj8GL2P2GgwyJW-19">
          <mxGeometry relative="1" as="geometry">
            <mxPoint x="664" y="310" as="sourcePoint" />
            <mxPoint x="964" y="310" as="targetPoint" />
          </mxGeometry>
        </mxCell>
        <mxCell id="mfoKoCKj8GL2P2GgwyJW-27" style="rounded=0;orthogonalLoop=1;jettySize=auto;html=1;exitX=1;exitY=0.5;exitDx=0;exitDy=0;entryX=0;entryY=0.5;entryDx=0;entryDy=0;endArrow=none;endFill=0;fontSize=38;" edge="1" parent="WIyWlLk6GJQsqaUBKTNV-1" source="mfoKoCKj8GL2P2GgwyJW-11" target="mfoKoCKj8GL2P2GgwyJW-15">
          <mxGeometry relative="1" as="geometry">
            <mxPoint x="674" y="320" as="sourcePoint" />
            <mxPoint x="974" y="320" as="targetPoint" />
          </mxGeometry>
        </mxCell>
        <mxCell id="mfoKoCKj8GL2P2GgwyJW-28" style="rounded=0;orthogonalLoop=1;jettySize=auto;html=1;exitX=1;exitY=0.5;exitDx=0;exitDy=0;entryX=0;entryY=0.5;entryDx=0;entryDy=0;endArrow=none;endFill=0;fontSize=38;" edge="1" parent="WIyWlLk6GJQsqaUBKTNV-1" source="mfoKoCKj8GL2P2GgwyJW-12" target="mfoKoCKj8GL2P2GgwyJW-14">
          <mxGeometry relative="1" as="geometry">
            <mxPoint x="684" y="330" as="sourcePoint" />
            <mxPoint x="984" y="330" as="targetPoint" />
          </mxGeometry>
        </mxCell>
        <mxCell id="mfoKoCKj8GL2P2GgwyJW-29" style="rounded=0;orthogonalLoop=1;jettySize=auto;html=1;entryX=0;entryY=0.5;entryDx=0;entryDy=0;endArrow=none;endFill=0;fontSize=38;" edge="1" parent="WIyWlLk6GJQsqaUBKTNV-1" target="mfoKoCKj8GL2P2GgwyJW-16">
          <mxGeometry relative="1" as="geometry">
            <mxPoint x="644" y="370" as="sourcePoint" />
            <mxPoint x="994" y="340" as="targetPoint" />
          </mxGeometry>
        </mxCell>
        <mxCell id="mfoKoCKj8GL2P2GgwyJW-30" style="rounded=0;orthogonalLoop=1;jettySize=auto;html=1;exitX=1;exitY=0.5;exitDx=0;exitDy=0;entryX=0;entryY=0.5;entryDx=0;entryDy=0;endArrow=none;endFill=0;fontSize=38;" edge="1" parent="WIyWlLk6GJQsqaUBKTNV-1" source="mfoKoCKj8GL2P2GgwyJW-12" target="mfoKoCKj8GL2P2GgwyJW-18">
          <mxGeometry relative="1" as="geometry">
            <mxPoint x="704" y="350" as="sourcePoint" />
            <mxPoint x="1004" y="350" as="targetPoint" />
          </mxGeometry>
        </mxCell>
        <mxCell id="mfoKoCKj8GL2P2GgwyJW-31" value="&lt;font style=&quot;font-size: 38px;&quot;&gt;Protein&lt;/font&gt;" style="text;html=1;align=center;verticalAlign=middle;resizable=0;points=[];autosize=1;strokeColor=none;fillColor=none;fontSize=38;" vertex="1" parent="WIyWlLk6GJQsqaUBKTNV-1">
          <mxGeometry x="544" y="120" width="140" height="60" as="geometry" />
        </mxCell>
        <mxCell id="mfoKoCKj8GL2P2GgwyJW-40" value="Protein sequence of N residues" style="rounded=0;whiteSpace=wrap;html=1;fontSize=38;fillColor=#0050ef;fontColor=#ffffff;strokeColor=#001DBC;" vertex="1" parent="WIyWlLk6GJQsqaUBKTNV-1">
          <mxGeometry x="-780" y="210" width="420" height="125" as="geometry" />
        </mxCell>
        <mxCell id="mfoKoCKj8GL2P2GgwyJW-49" style="edgeStyle=orthogonalEdgeStyle;rounded=0;orthogonalLoop=1;jettySize=auto;html=1;exitX=1;exitY=0.25;exitDx=0;exitDy=0;entryX=0;entryY=0.5;entryDx=0;entryDy=0;fontSize=38;strokeWidth=9;" edge="1" parent="WIyWlLk6GJQsqaUBKTNV-1" source="mfoKoCKj8GL2P2GgwyJW-41" target="mfoKoCKj8GL2P2GgwyJW-42">
          <mxGeometry relative="1" as="geometry" />
        </mxCell>
        <mxCell id="mfoKoCKj8GL2P2GgwyJW-41" value="&lt;font style=&quot;font-size: 37px;&quot;&gt;&amp;nbsp; &amp;gt; ABDH&lt;/font&gt;&lt;div style=&quot;font-size: 37px;&quot;&gt;&lt;font style=&quot;font-size: 37px;&quot;&gt;&amp;nbsp;&lt;/font&gt;&lt;/div&gt;&lt;div style=&quot;text-align: justify; font-size: 37px;&quot;&gt;&lt;font style=&quot;font-size: 37px;&quot;&gt;&amp;nbsp; MSLARBGUALCLVBMNM&lt;/font&gt;&lt;/div&gt;&lt;div style=&quot;text-align: justify; font-size: 37px;&quot;&gt;&lt;font style=&quot;font-size: 37px;&quot;&gt;&amp;nbsp; LKLK&lt;/font&gt;&lt;/div&gt;&lt;div style=&quot;text-align: justify; font-size: 37px;&quot;&gt;&lt;br style=&quot;&quot;&gt;&lt;/div&gt;" style="rounded=0;whiteSpace=wrap;html=1;align=left;fontSize=38;fillColor=#0050ef;fontColor=#ffffff;strokeColor=#001DBC;" vertex="1" parent="WIyWlLk6GJQsqaUBKTNV-1">
          <mxGeometry x="-780" y="345" width="420" height="295" as="geometry" />
        </mxCell>
        <mxCell id="mfoKoCKj8GL2P2GgwyJW-43" style="edgeStyle=orthogonalEdgeStyle;rounded=0;orthogonalLoop=1;jettySize=auto;html=1;entryX=0;entryY=0.5;entryDx=0;entryDy=0;fontSize=38;strokeWidth=9;" edge="1" parent="WIyWlLk6GJQsqaUBKTNV-1" target="mfoKoCKj8GL2P2GgwyJW-13">
          <mxGeometry relative="1" as="geometry">
            <mxPoint x="61" y="417.49999999999955" as="sourcePoint" />
          </mxGeometry>
        </mxCell>
        <mxCell id="mfoKoCKj8GL2P2GgwyJW-44" style="edgeStyle=orthogonalEdgeStyle;rounded=0;orthogonalLoop=1;jettySize=auto;html=1;exitX=1;exitY=0.5;exitDx=0;exitDy=0;entryX=0;entryY=0.5;entryDx=0;entryDy=0;fontSize=38;strokeWidth=9;" edge="1" parent="WIyWlLk6GJQsqaUBKTNV-1" target="mfoKoCKj8GL2P2GgwyJW-8">
          <mxGeometry relative="1" as="geometry">
            <mxPoint x="61" y="417.5" as="sourcePoint" />
          </mxGeometry>
        </mxCell>
        <mxCell id="mfoKoCKj8GL2P2GgwyJW-45" style="edgeStyle=orthogonalEdgeStyle;rounded=0;orthogonalLoop=1;jettySize=auto;html=1;exitX=1;exitY=0.5;exitDx=0;exitDy=0;fontSize=38;strokeWidth=9;entryX=0;entryY=0.5;entryDx=0;entryDy=0;" edge="1" parent="WIyWlLk6GJQsqaUBKTNV-1" target="mfoKoCKj8GL2P2GgwyJW-9">
          <mxGeometry relative="1" as="geometry">
            <mxPoint x="61" y="417.5" as="sourcePoint" />
          </mxGeometry>
        </mxCell>
        <mxCell id="mfoKoCKj8GL2P2GgwyJW-47" style="edgeStyle=orthogonalEdgeStyle;rounded=0;orthogonalLoop=1;jettySize=auto;html=1;exitX=1;exitY=0.5;exitDx=0;exitDy=0;entryX=0;entryY=0.5;entryDx=0;entryDy=0;fontSize=38;strokeWidth=9;" edge="1" parent="WIyWlLk6GJQsqaUBKTNV-1" target="mfoKoCKj8GL2P2GgwyJW-11">
          <mxGeometry relative="1" as="geometry">
            <mxPoint x="61" y="417.5" as="sourcePoint" />
          </mxGeometry>
        </mxCell>
        <mxCell id="mfoKoCKj8GL2P2GgwyJW-48" style="edgeStyle=orthogonalEdgeStyle;rounded=0;orthogonalLoop=1;jettySize=auto;html=1;exitX=1;exitY=0.5;exitDx=0;exitDy=0;entryX=0;entryY=0.5;entryDx=0;entryDy=0;fontSize=38;strokeWidth=9;" edge="1" parent="WIyWlLk6GJQsqaUBKTNV-1" target="mfoKoCKj8GL2P2GgwyJW-12">
          <mxGeometry relative="1" as="geometry">
            <mxPoint x="61" y="417.5" as="sourcePoint" />
            <Array as="points">
              <mxPoint x="320" y="417" />
              <mxPoint x="320" y="610" />
            </Array>
          </mxGeometry>
        </mxCell>
        <mxCell id="mfoKoCKj8GL2P2GgwyJW-119" style="edgeStyle=orthogonalEdgeStyle;rounded=0;orthogonalLoop=1;jettySize=auto;html=1;exitX=1;exitY=0.5;exitDx=0;exitDy=0;fontSize=38;" edge="1" parent="WIyWlLk6GJQsqaUBKTNV-1" target="mfoKoCKj8GL2P2GgwyJW-117">
          <mxGeometry relative="1" as="geometry">
            <mxPoint x="-708" y="1137" as="sourcePoint" />
          </mxGeometry>
        </mxCell>
        <mxCell id="mfoKoCKj8GL2P2GgwyJW-171" style="edgeStyle=orthogonalEdgeStyle;rounded=0;orthogonalLoop=1;jettySize=auto;html=1;exitX=1;exitY=0.5;exitDx=0;exitDy=0;entryX=0;entryY=0.5;entryDx=0;entryDy=0;strokeWidth=9;" edge="1" parent="WIyWlLk6GJQsqaUBKTNV-1" source="mfoKoCKj8GL2P2GgwyJW-42" target="mfoKoCKj8GL2P2GgwyJW-10">
          <mxGeometry relative="1" as="geometry">
            <Array as="points">
              <mxPoint x="320" y="417" />
              <mxPoint x="320" y="450" />
            </Array>
          </mxGeometry>
        </mxCell>
        <mxCell id="mfoKoCKj8GL2P2GgwyJW-42" value="ESM2 Sequence level embeddings" style="rounded=0;whiteSpace=wrap;html=1;fontSize=38;fillColor=#0050ef;fontColor=#ffffff;strokeColor=#001DBC;" vertex="1" parent="WIyWlLk6GJQsqaUBKTNV-1">
          <mxGeometry x="-191" y="350" width="350" height="135" as="geometry" />
        </mxCell>
        <mxCell id="mfoKoCKj8GL2P2GgwyJW-174" style="edgeStyle=orthogonalEdgeStyle;rounded=0;orthogonalLoop=1;jettySize=auto;html=1;exitX=0.5;exitY=1;exitDx=0;exitDy=0;strokeWidth=9;" edge="1" parent="WIyWlLk6GJQsqaUBKTNV-1" source="mfoKoCKj8GL2P2GgwyJW-53" target="mfoKoCKj8GL2P2GgwyJW-61">
          <mxGeometry relative="1" as="geometry" />
        </mxCell>
        <mxCell id="mfoKoCKj8GL2P2GgwyJW-53" value="MicroBIGG-E" style="rounded=0;whiteSpace=wrap;html=1;fontSize=38;" vertex="1" parent="WIyWlLk6GJQsqaUBKTNV-1">
          <mxGeometry x="-780" y="-420" width="420" height="150" as="geometry" />
        </mxCell>
        <mxCell id="mfoKoCKj8GL2P2GgwyJW-55" value="[N, 1024]" style="text;html=1;align=center;verticalAlign=middle;resizable=0;points=[];autosize=1;strokeColor=none;fillColor=none;fontSize=38;" vertex="1" parent="WIyWlLk6GJQsqaUBKTNV-1">
          <mxGeometry x="-111" y="490" width="180" height="60" as="geometry" />
        </mxCell>
        <mxCell id="mfoKoCKj8GL2P2GgwyJW-60" style="edgeStyle=orthogonalEdgeStyle;rounded=0;orthogonalLoop=1;jettySize=auto;html=1;fontSize=38;strokeWidth=9;" edge="1" parent="WIyWlLk6GJQsqaUBKTNV-1" source="mfoKoCKj8GL2P2GgwyJW-57" target="mfoKoCKj8GL2P2GgwyJW-59">
          <mxGeometry relative="1" as="geometry">
            <mxPoint x="40" y="-400" as="sourcePoint" />
            <mxPoint x="699" y="-430" as="targetPoint" />
            <Array as="points">
              <mxPoint x="65" y="-430" />
              <mxPoint x="818" y="-430" />
            </Array>
          </mxGeometry>
        </mxCell>
        <mxCell id="mfoKoCKj8GL2P2GgwyJW-81" style="edgeStyle=orthogonalEdgeStyle;rounded=0;orthogonalLoop=1;jettySize=auto;html=1;exitX=1;exitY=0.75;exitDx=0;exitDy=0;entryX=0;entryY=0.5;entryDx=0;entryDy=0;fontSize=38;strokeWidth=9;" edge="1" parent="WIyWlLk6GJQsqaUBKTNV-1" source="mfoKoCKj8GL2P2GgwyJW-57" target="mfoKoCKj8GL2P2GgwyJW-80">
          <mxGeometry relative="1" as="geometry">
            <mxPoint x="-19" y="-255" as="sourcePoint" />
            <Array as="points">
              <mxPoint x="420" y="-255" />
              <mxPoint x="420" y="-120" />
            </Array>
          </mxGeometry>
        </mxCell>
        <mxCell id="mfoKoCKj8GL2P2GgwyJW-67" style="edgeStyle=orthogonalEdgeStyle;rounded=0;orthogonalLoop=1;jettySize=auto;html=1;exitX=1;exitY=0.5;exitDx=0;exitDy=0;entryX=1;entryY=0.5;entryDx=0;entryDy=0;fontSize=38;strokeWidth=9;" edge="1" parent="WIyWlLk6GJQsqaUBKTNV-1" source="mfoKoCKj8GL2P2GgwyJW-59" target="mfoKoCKj8GL2P2GgwyJW-19">
          <mxGeometry relative="1" as="geometry">
            <mxPoint x="1054" y="189.99999999999977" as="targetPoint" />
            <Array as="points">
              <mxPoint x="1144" y="-300" />
              <mxPoint x="1144" y="220" />
            </Array>
          </mxGeometry>
        </mxCell>
        <mxCell id="mfoKoCKj8GL2P2GgwyJW-69" style="edgeStyle=orthogonalEdgeStyle;rounded=0;orthogonalLoop=1;jettySize=auto;html=1;exitX=1;exitY=0.5;exitDx=0;exitDy=0;entryX=1;entryY=0.5;entryDx=0;entryDy=0;fontSize=38;strokeWidth=9;" edge="1" parent="WIyWlLk6GJQsqaUBKTNV-1" source="mfoKoCKj8GL2P2GgwyJW-59" target="mfoKoCKj8GL2P2GgwyJW-15">
          <mxGeometry relative="1" as="geometry">
            <Array as="points">
              <mxPoint x="1144" y="-300" />
              <mxPoint x="1144" y="370" />
            </Array>
          </mxGeometry>
        </mxCell>
        <mxCell id="mfoKoCKj8GL2P2GgwyJW-70" style="edgeStyle=orthogonalEdgeStyle;rounded=0;orthogonalLoop=1;jettySize=auto;html=1;entryX=1;entryY=0.5;entryDx=0;entryDy=0;fontSize=38;strokeWidth=9;" edge="1" parent="WIyWlLk6GJQsqaUBKTNV-1" source="mfoKoCKj8GL2P2GgwyJW-59" target="mfoKoCKj8GL2P2GgwyJW-16">
          <mxGeometry relative="1" as="geometry">
            <Array as="points">
              <mxPoint x="1144" y="-300" />
              <mxPoint x="1144" y="450" />
            </Array>
          </mxGeometry>
        </mxCell>
        <mxCell id="mfoKoCKj8GL2P2GgwyJW-73" style="edgeStyle=orthogonalEdgeStyle;rounded=0;orthogonalLoop=1;jettySize=auto;html=1;entryX=1;entryY=0.5;entryDx=0;entryDy=0;fontSize=38;strokeWidth=9;" edge="1" parent="WIyWlLk6GJQsqaUBKTNV-1" source="mfoKoCKj8GL2P2GgwyJW-59" target="mfoKoCKj8GL2P2GgwyJW-18">
          <mxGeometry relative="1" as="geometry">
            <Array as="points">
              <mxPoint x="1144" y="-300" />
              <mxPoint x="1144" y="610" />
            </Array>
          </mxGeometry>
        </mxCell>
        <mxCell id="mfoKoCKj8GL2P2GgwyJW-59" value="Multihot label vector" style="rounded=0;whiteSpace=wrap;html=1;fontSize=38;fillColor=#a20025;fontColor=#ffffff;strokeColor=#6F0000;" vertex="1" parent="WIyWlLk6GJQsqaUBKTNV-1">
          <mxGeometry x="640" y="-330" width="356" height="60" as="geometry" />
        </mxCell>
        <mxCell id="mfoKoCKj8GL2P2GgwyJW-62" style="edgeStyle=orthogonalEdgeStyle;rounded=0;orthogonalLoop=1;jettySize=auto;html=1;fontSize=38;strokeWidth=9;" edge="1" parent="WIyWlLk6GJQsqaUBKTNV-1" source="mfoKoCKj8GL2P2GgwyJW-61" target="mfoKoCKj8GL2P2GgwyJW-40">
          <mxGeometry relative="1" as="geometry">
            <mxPoint x="-310" y="269.9999999999998" as="targetPoint" />
          </mxGeometry>
        </mxCell>
        <mxCell id="mfoKoCKj8GL2P2GgwyJW-63" style="edgeStyle=orthogonalEdgeStyle;rounded=0;orthogonalLoop=1;jettySize=auto;html=1;fontSize=38;strokeWidth=9;" edge="1" parent="WIyWlLk6GJQsqaUBKTNV-1" source="mfoKoCKj8GL2P2GgwyJW-61" target="mfoKoCKj8GL2P2GgwyJW-57">
          <mxGeometry relative="1" as="geometry">
            <Array as="points">
              <mxPoint x="-160" y="-30" />
            </Array>
          </mxGeometry>
        </mxCell>
        <mxCell id="mfoKoCKj8GL2P2GgwyJW-77" style="edgeStyle=orthogonalEdgeStyle;rounded=0;orthogonalLoop=1;jettySize=auto;html=1;entryX=0;entryY=0.5;entryDx=0;entryDy=0;fontSize=38;strokeWidth=9;" edge="1" parent="WIyWlLk6GJQsqaUBKTNV-1" source="mfoKoCKj8GL2P2GgwyJW-61" target="mfoKoCKj8GL2P2GgwyJW-74">
          <mxGeometry relative="1" as="geometry">
            <Array as="points">
              <mxPoint x="-160" y="-30" />
              <mxPoint x="-160" y="135" />
            </Array>
          </mxGeometry>
        </mxCell>
        <mxCell id="mfoKoCKj8GL2P2GgwyJW-61" value="ESKAPE species" style="rounded=0;whiteSpace=wrap;html=1;fontSize=38;" vertex="1" parent="WIyWlLk6GJQsqaUBKTNV-1">
          <mxGeometry x="-785" y="-100" width="430" height="130" as="geometry" />
        </mxCell>
        <mxCell id="mfoKoCKj8GL2P2GgwyJW-65" value="Label encoding" style="text;html=1;align=center;verticalAlign=middle;resizable=0;points=[];autosize=1;strokeColor=none;fillColor=none;fontSize=38;" vertex="1" parent="WIyWlLk6GJQsqaUBKTNV-1">
          <mxGeometry x="-70" y="-220" width="280" height="60" as="geometry" />
        </mxCell>
        <mxCell id="mfoKoCKj8GL2P2GgwyJW-68" style="edgeStyle=orthogonalEdgeStyle;rounded=0;orthogonalLoop=1;jettySize=auto;html=1;exitX=1;exitY=0.5;exitDx=0;exitDy=0;fontSize=38;strokeWidth=9;" edge="1" parent="WIyWlLk6GJQsqaUBKTNV-1" source="mfoKoCKj8GL2P2GgwyJW-59">
          <mxGeometry relative="1" as="geometry">
            <mxPoint x="1002" y="290" as="targetPoint" />
            <Array as="points">
              <mxPoint x="1144" y="-300" />
              <mxPoint x="1144" y="290" />
              <mxPoint x="1002" y="290" />
            </Array>
          </mxGeometry>
        </mxCell>
        <mxCell id="mfoKoCKj8GL2P2GgwyJW-72" style="edgeStyle=orthogonalEdgeStyle;rounded=0;orthogonalLoop=1;jettySize=auto;html=1;entryX=1;entryY=0.5;entryDx=0;entryDy=0;exitX=1;exitY=0.5;exitDx=0;exitDy=0;fontSize=38;strokeWidth=9;" edge="1" parent="WIyWlLk6GJQsqaUBKTNV-1" source="mfoKoCKj8GL2P2GgwyJW-59" target="mfoKoCKj8GL2P2GgwyJW-17">
          <mxGeometry relative="1" as="geometry">
            <mxPoint x="834" y="-20" as="sourcePoint" />
            <mxPoint x="954" y="410" as="targetPoint" />
            <Array as="points">
              <mxPoint x="1144" y="-300" />
              <mxPoint x="1144" y="530" />
            </Array>
          </mxGeometry>
        </mxCell>
        <mxCell id="mfoKoCKj8GL2P2GgwyJW-172" style="edgeStyle=orthogonalEdgeStyle;rounded=0;orthogonalLoop=1;jettySize=auto;html=1;exitX=1;exitY=0.5;exitDx=0;exitDy=0;entryX=0;entryY=0.5;entryDx=0;entryDy=0;strokeWidth=9;" edge="1" parent="WIyWlLk6GJQsqaUBKTNV-1" source="mfoKoCKj8GL2P2GgwyJW-74" target="mfoKoCKj8GL2P2GgwyJW-80">
          <mxGeometry relative="1" as="geometry">
            <Array as="points">
              <mxPoint x="215" y="155" />
              <mxPoint x="420" y="155" />
              <mxPoint x="420" y="-120" />
            </Array>
          </mxGeometry>
        </mxCell>
        <mxCell id="mfoKoCKj8GL2P2GgwyJW-74" value="Protein Accessions" style="rounded=0;whiteSpace=wrap;html=1;fontSize=38;fillColor=#0050ef;fontColor=#ffffff;strokeColor=#001DBC;" vertex="1" parent="WIyWlLk6GJQsqaUBKTNV-1">
          <mxGeometry x="-90" y="70" width="305" height="130" as="geometry" />
        </mxCell>
        <mxCell id="mfoKoCKj8GL2P2GgwyJW-83" style="edgeStyle=orthogonalEdgeStyle;rounded=0;orthogonalLoop=1;jettySize=auto;html=1;exitX=0.352;exitY=1.058;exitDx=0;exitDy=0;fontSize=38;exitPerimeter=0;strokeWidth=9;" edge="1" parent="WIyWlLk6GJQsqaUBKTNV-1" source="mfoKoCKj8GL2P2GgwyJW-80">
          <mxGeometry relative="1" as="geometry">
            <mxPoint x="774" y="290" as="targetPoint" />
          </mxGeometry>
        </mxCell>
        <mxCell id="mfoKoCKj8GL2P2GgwyJW-80" value="Edge Indices" style="rounded=0;whiteSpace=wrap;html=1;fontSize=38;fillColor=#420a17;fontColor=#ffffff;strokeColor=#6F0000;" vertex="1" parent="WIyWlLk6GJQsqaUBKTNV-1">
          <mxGeometry x="641" y="-150" width="375" height="60" as="geometry" />
        </mxCell>
        <mxCell id="mfoKoCKj8GL2P2GgwyJW-131" style="edgeStyle=orthogonalEdgeStyle;rounded=0;orthogonalLoop=1;jettySize=auto;html=1;exitX=1;exitY=0.5;exitDx=0;exitDy=0;fontSize=38;" edge="1" parent="WIyWlLk6GJQsqaUBKTNV-1" source="mfoKoCKj8GL2P2GgwyJW-117" target="mfoKoCKj8GL2P2GgwyJW-129">
          <mxGeometry relative="1" as="geometry">
            <mxPoint x="182" y="1137.1999999999998" as="targetPoint" />
          </mxGeometry>
        </mxCell>
        <mxCell id="mfoKoCKj8GL2P2GgwyJW-117" value="" style="rounded=1;whiteSpace=wrap;html=1;fontSize=38;fillColor=#4A3E59;" vertex="1" parent="WIyWlLk6GJQsqaUBKTNV-1">
          <mxGeometry x="-616" y="902" width="718" height="470" as="geometry" />
        </mxCell>
        <mxCell id="mfoKoCKj8GL2P2GgwyJW-120" value="Preprocessing" style="rounded=0;whiteSpace=wrap;html=1;rotation=-90;fontSize=38;fillColor=#001E59;fontColor=#ffffff;strokeColor=#001DBC;" vertex="1" parent="WIyWlLk6GJQsqaUBKTNV-1">
          <mxGeometry x="-1356.25" y="170" width="885" height="60" as="geometry" />
        </mxCell>
        <mxCell id="mfoKoCKj8GL2P2GgwyJW-121" value="Preprocessed Data" style="rounded=0;whiteSpace=wrap;html=1;rotation=-90;fontSize=38;" vertex="1" parent="WIyWlLk6GJQsqaUBKTNV-1">
          <mxGeometry x="-937" y="1092" width="410" height="60" as="geometry" />
        </mxCell>
        <mxCell id="mfoKoCKj8GL2P2GgwyJW-122" value="Edge Prediction" style="rounded=0;whiteSpace=wrap;html=1;rotation=-90;fontSize=38;fillColor=#490817;fontColor=#ffffff;strokeColor=#6F0000;" vertex="1" parent="WIyWlLk6GJQsqaUBKTNV-1">
          <mxGeometry x="-1227" y="1107" width="632.5" height="60" as="geometry" />
        </mxCell>
        <mxCell id="mfoKoCKj8GL2P2GgwyJW-133" style="edgeStyle=orthogonalEdgeStyle;rounded=0;orthogonalLoop=1;jettySize=auto;html=1;exitX=0.5;exitY=1;exitDx=0;exitDy=0;fontSize=38;" edge="1" parent="WIyWlLk6GJQsqaUBKTNV-1" source="mfoKoCKj8GL2P2GgwyJW-125" target="mfoKoCKj8GL2P2GgwyJW-126">
          <mxGeometry relative="1" as="geometry" />
        </mxCell>
        <mxCell id="mfoKoCKj8GL2P2GgwyJW-125" value="Fully connected layer&amp;nbsp;" style="rounded=1;whiteSpace=wrap;html=1;rotation=-90;fontSize=38;" vertex="1" parent="WIyWlLk6GJQsqaUBKTNV-1">
          <mxGeometry x="-700.5" y="1084.5" width="410" height="105" as="geometry" />
        </mxCell>
        <mxCell id="mfoKoCKj8GL2P2GgwyJW-134" style="edgeStyle=orthogonalEdgeStyle;rounded=0;orthogonalLoop=1;jettySize=auto;html=1;fontSize=38;" edge="1" parent="WIyWlLk6GJQsqaUBKTNV-1" source="mfoKoCKj8GL2P2GgwyJW-126" target="mfoKoCKj8GL2P2GgwyJW-127">
          <mxGeometry relative="1" as="geometry" />
        </mxCell>
        <mxCell id="mfoKoCKj8GL2P2GgwyJW-126" value="GCN&amp;nbsp; Layer" style="rounded=1;whiteSpace=wrap;html=1;rotation=-90;fontSize=38;" vertex="1" parent="WIyWlLk6GJQsqaUBKTNV-1">
          <mxGeometry x="-538" y="1084.5" width="410" height="105" as="geometry" />
        </mxCell>
        <mxCell id="mfoKoCKj8GL2P2GgwyJW-135" style="edgeStyle=orthogonalEdgeStyle;rounded=0;orthogonalLoop=1;jettySize=auto;html=1;entryX=0.5;entryY=0;entryDx=0;entryDy=0;fontSize=38;" edge="1" parent="WIyWlLk6GJQsqaUBKTNV-1" source="mfoKoCKj8GL2P2GgwyJW-127" target="mfoKoCKj8GL2P2GgwyJW-128">
          <mxGeometry relative="1" as="geometry" />
        </mxCell>
        <mxCell id="mfoKoCKj8GL2P2GgwyJW-127" value="Haierachial Pooling" style="rounded=1;whiteSpace=wrap;html=1;rotation=-90;fontSize=38;" vertex="1" parent="WIyWlLk6GJQsqaUBKTNV-1">
          <mxGeometry x="-378" y="1084.5" width="410" height="105" as="geometry" />
        </mxCell>
        <mxCell id="mfoKoCKj8GL2P2GgwyJW-128" value="Readout" style="rounded=1;whiteSpace=wrap;html=1;rotation=-90;fontSize=38;" vertex="1" parent="WIyWlLk6GJQsqaUBKTNV-1">
          <mxGeometry x="-218" y="1084.5" width="410" height="105" as="geometry" />
        </mxCell>
        <mxCell id="mfoKoCKj8GL2P2GgwyJW-132" style="edgeStyle=orthogonalEdgeStyle;rounded=0;orthogonalLoop=1;jettySize=auto;html=1;exitX=0.5;exitY=1;exitDx=0;exitDy=0;fontSize=38;" edge="1" parent="WIyWlLk6GJQsqaUBKTNV-1" source="mfoKoCKj8GL2P2GgwyJW-129" target="mfoKoCKj8GL2P2GgwyJW-130">
          <mxGeometry relative="1" as="geometry" />
        </mxCell>
        <mxCell id="mfoKoCKj8GL2P2GgwyJW-129" value="Classifier" style="rounded=1;whiteSpace=wrap;html=1;rotation=-90;fontSize=38;" vertex="1" parent="WIyWlLk6GJQsqaUBKTNV-1">
          <mxGeometry x="32" y="1084.5" width="410" height="105" as="geometry" />
        </mxCell>
        <mxCell id="mfoKoCKj8GL2P2GgwyJW-130" value="AMR Class Labels" style="rounded=1;whiteSpace=wrap;html=1;rotation=-90;fontSize=38;" vertex="1" parent="WIyWlLk6GJQsqaUBKTNV-1">
          <mxGeometry x="232" y="1084.5" width="410" height="105" as="geometry" />
        </mxCell>
        <mxCell id="mfoKoCKj8GL2P2GgwyJW-110" value="&lt;span style=&quot;font-size: 38px;&quot;&gt;Drug Classes&lt;/span&gt;" style="text;html=1;align=center;verticalAlign=middle;resizable=0;points=[];autosize=1;strokeColor=none;fillColor=none;fontSize=38;" vertex="1" parent="WIyWlLk6GJQsqaUBKTNV-1">
          <mxGeometry x="854" y="120" width="250" height="60" as="geometry" />
        </mxCell>
        <mxCell id="mfoKoCKj8GL2P2GgwyJW-137" value="" style="endArrow=none;dashed=1;html=1;rounded=0;fillColor=#a20025;strokeColor=#FAFAFF;strokeWidth=8;" edge="1" parent="WIyWlLk6GJQsqaUBKTNV-1">
          <mxGeometry width="50" height="50" relative="1" as="geometry">
            <mxPoint x="-1120" y="740" as="sourcePoint" />
            <mxPoint x="1410" y="740" as="targetPoint" />
          </mxGeometry>
        </mxCell>
        <mxCell id="mfoKoCKj8GL2P2GgwyJW-140" value="Bi-partite graph" style="text;html=1;align=center;verticalAlign=middle;resizable=0;points=[];autosize=1;strokeColor=none;fillColor=none;fontSize=38;" vertex="1" parent="WIyWlLk6GJQsqaUBKTNV-1">
          <mxGeometry x="653" y="620" width="280" height="60" as="geometry" />
        </mxCell>
        <mxCell id="mfoKoCKj8GL2P2GgwyJW-142" value="" style="ellipse;whiteSpace=wrap;html=1;aspect=fixed;fontSize=38;fillColor=#0050ef;fontColor=#ffffff;strokeColor=#001DBC;" vertex="1" parent="WIyWlLk6GJQsqaUBKTNV-1">
          <mxGeometry x="610" y="987" width="60" height="60" as="geometry" />
        </mxCell>
        <mxCell id="mfoKoCKj8GL2P2GgwyJW-143" value="" style="ellipse;whiteSpace=wrap;html=1;aspect=fixed;fontSize=38;fillColor=#0050ef;fontColor=#ffffff;strokeColor=#001DBC;" vertex="1" parent="WIyWlLk6GJQsqaUBKTNV-1">
          <mxGeometry x="610" y="1067" width="60" height="60" as="geometry" />
        </mxCell>
        <mxCell id="mfoKoCKj8GL2P2GgwyJW-144" style="rounded=0;orthogonalLoop=1;jettySize=auto;html=1;entryX=0;entryY=0.5;entryDx=0;entryDy=0;endArrow=none;endFill=0;fontSize=38;" edge="1" parent="WIyWlLk6GJQsqaUBKTNV-1" source="mfoKoCKj8GL2P2GgwyJW-145" target="mfoKoCKj8GL2P2GgwyJW-153">
          <mxGeometry relative="1" as="geometry" />
        </mxCell>
        <mxCell id="mfoKoCKj8GL2P2GgwyJW-145" value="" style="ellipse;whiteSpace=wrap;html=1;aspect=fixed;fontSize=38;fillColor=#0050ef;fontColor=#ffffff;strokeColor=#001DBC;" vertex="1" parent="WIyWlLk6GJQsqaUBKTNV-1">
          <mxGeometry x="610" y="1147" width="60" height="60" as="geometry" />
        </mxCell>
        <mxCell id="mfoKoCKj8GL2P2GgwyJW-167" style="rounded=0;orthogonalLoop=1;jettySize=auto;html=1;exitX=1;exitY=0.5;exitDx=0;exitDy=0;entryX=0;entryY=0.5;entryDx=0;entryDy=0;endArrow=none;endFill=0;dashed=1;" edge="1" parent="WIyWlLk6GJQsqaUBKTNV-1" source="mfoKoCKj8GL2P2GgwyJW-146" target="mfoKoCKj8GL2P2GgwyJW-150">
          <mxGeometry relative="1" as="geometry" />
        </mxCell>
        <mxCell id="mfoKoCKj8GL2P2GgwyJW-146" value="" style="ellipse;whiteSpace=wrap;html=1;aspect=fixed;fontSize=38;fillColor=#0050ef;fontColor=#ffffff;strokeColor=#001DBC;" vertex="1" parent="WIyWlLk6GJQsqaUBKTNV-1">
          <mxGeometry x="610" y="1227" width="60" height="60" as="geometry" />
        </mxCell>
        <mxCell id="mfoKoCKj8GL2P2GgwyJW-168" style="rounded=0;orthogonalLoop=1;jettySize=auto;html=1;exitX=1;exitY=0.5;exitDx=0;exitDy=0;entryX=0;entryY=0.5;entryDx=0;entryDy=0;endArrow=none;endFill=0;dashed=1;" edge="1" parent="WIyWlLk6GJQsqaUBKTNV-1" source="mfoKoCKj8GL2P2GgwyJW-147" target="mfoKoCKj8GL2P2GgwyJW-152">
          <mxGeometry relative="1" as="geometry" />
        </mxCell>
        <mxCell id="mfoKoCKj8GL2P2GgwyJW-147" value="" style="ellipse;whiteSpace=wrap;html=1;aspect=fixed;fontSize=38;fillColor=#0050ef;fontColor=#ffffff;strokeColor=#001DBC;" vertex="1" parent="WIyWlLk6GJQsqaUBKTNV-1">
          <mxGeometry x="610" y="1307" width="60" height="60" as="geometry" />
        </mxCell>
        <mxCell id="mfoKoCKj8GL2P2GgwyJW-148" style="rounded=0;orthogonalLoop=1;jettySize=auto;html=1;exitX=1;exitY=0.5;exitDx=0;exitDy=0;entryX=0;entryY=0.5;entryDx=0;entryDy=0;endArrow=none;endFill=0;fontSize=38;" edge="1" parent="WIyWlLk6GJQsqaUBKTNV-1" source="mfoKoCKj8GL2P2GgwyJW-149" target="mfoKoCKj8GL2P2GgwyJW-154">
          <mxGeometry relative="1" as="geometry" />
        </mxCell>
        <mxCell id="mfoKoCKj8GL2P2GgwyJW-166" style="edgeStyle=orthogonalEdgeStyle;rounded=0;orthogonalLoop=1;jettySize=auto;html=1;exitX=1;exitY=0.5;exitDx=0;exitDy=0;entryX=0;entryY=0.5;entryDx=0;entryDy=0;endArrow=none;endFill=0;dashed=1;" edge="1" parent="WIyWlLk6GJQsqaUBKTNV-1" source="mfoKoCKj8GL2P2GgwyJW-149" target="mfoKoCKj8GL2P2GgwyJW-155">
          <mxGeometry relative="1" as="geometry" />
        </mxCell>
        <mxCell id="mfoKoCKj8GL2P2GgwyJW-149" value="" style="ellipse;whiteSpace=wrap;html=1;aspect=fixed;fontSize=38;fillColor=#0050ef;fontColor=#ffffff;strokeColor=#001DBC;" vertex="1" parent="WIyWlLk6GJQsqaUBKTNV-1">
          <mxGeometry x="610" y="917" width="60" height="60" as="geometry" />
        </mxCell>
        <mxCell id="mfoKoCKj8GL2P2GgwyJW-150" value="" style="ellipse;whiteSpace=wrap;html=1;aspect=fixed;fontSize=38;fillColor=#a20025;fontColor=#ffffff;strokeColor=#6F0000;" vertex="1" parent="WIyWlLk6GJQsqaUBKTNV-1">
          <mxGeometry x="970" y="987" width="60" height="60" as="geometry" />
        </mxCell>
        <mxCell id="mfoKoCKj8GL2P2GgwyJW-151" value="" style="ellipse;whiteSpace=wrap;html=1;aspect=fixed;fontSize=38;fillColor=#a20025;fontColor=#ffffff;strokeColor=#6F0000;" vertex="1" parent="WIyWlLk6GJQsqaUBKTNV-1">
          <mxGeometry x="970" y="1067" width="60" height="60" as="geometry" />
        </mxCell>
        <mxCell id="mfoKoCKj8GL2P2GgwyJW-152" value="" style="ellipse;whiteSpace=wrap;html=1;aspect=fixed;fontSize=38;fillColor=#a20025;fontColor=#ffffff;strokeColor=#6F0000;" vertex="1" parent="WIyWlLk6GJQsqaUBKTNV-1">
          <mxGeometry x="970" y="1147" width="60" height="60" as="geometry" />
        </mxCell>
        <mxCell id="mfoKoCKj8GL2P2GgwyJW-153" value="" style="ellipse;whiteSpace=wrap;html=1;aspect=fixed;fontSize=38;fillColor=#a20025;fontColor=#ffffff;strokeColor=#6F0000;" vertex="1" parent="WIyWlLk6GJQsqaUBKTNV-1">
          <mxGeometry x="970" y="1227" width="60" height="60" as="geometry" />
        </mxCell>
        <mxCell id="mfoKoCKj8GL2P2GgwyJW-154" value="" style="ellipse;whiteSpace=wrap;html=1;aspect=fixed;fontSize=38;fillColor=#a20025;fontColor=#ffffff;strokeColor=#6F0000;" vertex="1" parent="WIyWlLk6GJQsqaUBKTNV-1">
          <mxGeometry x="970" y="1307" width="60" height="60" as="geometry" />
        </mxCell>
        <mxCell id="mfoKoCKj8GL2P2GgwyJW-155" value="" style="ellipse;whiteSpace=wrap;html=1;aspect=fixed;fontSize=38;fillColor=#a20025;fontColor=#ffffff;strokeColor=#6F0000;" vertex="1" parent="WIyWlLk6GJQsqaUBKTNV-1">
          <mxGeometry x="970" y="917" width="60" height="60" as="geometry" />
        </mxCell>
        <mxCell id="mfoKoCKj8GL2P2GgwyJW-156" style="rounded=0;orthogonalLoop=1;jettySize=auto;html=1;exitX=1;exitY=0.5;exitDx=0;exitDy=0;entryX=0;entryY=0.5;entryDx=0;entryDy=0;endArrow=none;endFill=0;fontSize=38;" edge="1" parent="WIyWlLk6GJQsqaUBKTNV-1" source="mfoKoCKj8GL2P2GgwyJW-142" target="mfoKoCKj8GL2P2GgwyJW-150">
          <mxGeometry relative="1" as="geometry">
            <mxPoint x="680" y="957" as="sourcePoint" />
            <mxPoint x="980" y="1347" as="targetPoint" />
          </mxGeometry>
        </mxCell>
        <mxCell id="mfoKoCKj8GL2P2GgwyJW-157" style="rounded=0;orthogonalLoop=1;jettySize=auto;html=1;exitX=1;exitY=0.5;exitDx=0;exitDy=0;endArrow=none;endFill=0;fontSize=38;" edge="1" parent="WIyWlLk6GJQsqaUBKTNV-1" source="mfoKoCKj8GL2P2GgwyJW-143">
          <mxGeometry relative="1" as="geometry">
            <mxPoint x="680" y="1027" as="sourcePoint" />
            <mxPoint x="970" y="1337" as="targetPoint" />
          </mxGeometry>
        </mxCell>
        <mxCell id="mfoKoCKj8GL2P2GgwyJW-158" style="rounded=0;orthogonalLoop=1;jettySize=auto;html=1;exitX=1;exitY=0.5;exitDx=0;exitDy=0;entryX=0;entryY=0.5;entryDx=0;entryDy=0;endArrow=none;endFill=0;fontSize=38;" edge="1" parent="WIyWlLk6GJQsqaUBKTNV-1" source="mfoKoCKj8GL2P2GgwyJW-145" target="mfoKoCKj8GL2P2GgwyJW-155">
          <mxGeometry relative="1" as="geometry">
            <mxPoint x="690" y="1037" as="sourcePoint" />
            <mxPoint x="990" y="1037" as="targetPoint" />
          </mxGeometry>
        </mxCell>
        <mxCell id="mfoKoCKj8GL2P2GgwyJW-159" style="rounded=0;orthogonalLoop=1;jettySize=auto;html=1;exitX=1;exitY=0.5;exitDx=0;exitDy=0;entryX=0;entryY=0.5;entryDx=0;entryDy=0;endArrow=none;endFill=0;fontSize=38;" edge="1" parent="WIyWlLk6GJQsqaUBKTNV-1" source="mfoKoCKj8GL2P2GgwyJW-146" target="mfoKoCKj8GL2P2GgwyJW-151">
          <mxGeometry relative="1" as="geometry">
            <mxPoint x="700" y="1047" as="sourcePoint" />
            <mxPoint x="1000" y="1047" as="targetPoint" />
          </mxGeometry>
        </mxCell>
        <mxCell id="mfoKoCKj8GL2P2GgwyJW-160" style="rounded=0;orthogonalLoop=1;jettySize=auto;html=1;exitX=1;exitY=0.5;exitDx=0;exitDy=0;entryX=0;entryY=0.5;entryDx=0;entryDy=0;endArrow=none;endFill=0;fontSize=38;" edge="1" parent="WIyWlLk6GJQsqaUBKTNV-1" source="mfoKoCKj8GL2P2GgwyJW-147" target="mfoKoCKj8GL2P2GgwyJW-150">
          <mxGeometry relative="1" as="geometry">
            <mxPoint x="710" y="1057" as="sourcePoint" />
            <mxPoint x="1010" y="1057" as="targetPoint" />
          </mxGeometry>
        </mxCell>
        <mxCell id="mfoKoCKj8GL2P2GgwyJW-161" style="rounded=0;orthogonalLoop=1;jettySize=auto;html=1;entryX=0;entryY=0.5;entryDx=0;entryDy=0;endArrow=none;endFill=0;fontSize=38;" edge="1" parent="WIyWlLk6GJQsqaUBKTNV-1" target="mfoKoCKj8GL2P2GgwyJW-152">
          <mxGeometry relative="1" as="geometry">
            <mxPoint x="670" y="1097" as="sourcePoint" />
            <mxPoint x="1020" y="1067" as="targetPoint" />
          </mxGeometry>
        </mxCell>
        <mxCell id="mfoKoCKj8GL2P2GgwyJW-162" style="rounded=0;orthogonalLoop=1;jettySize=auto;html=1;exitX=1;exitY=0.5;exitDx=0;exitDy=0;entryX=0;entryY=0.5;entryDx=0;entryDy=0;endArrow=none;endFill=0;fontSize=38;" edge="1" parent="WIyWlLk6GJQsqaUBKTNV-1" source="mfoKoCKj8GL2P2GgwyJW-147" target="mfoKoCKj8GL2P2GgwyJW-154">
          <mxGeometry relative="1" as="geometry">
            <mxPoint x="730" y="1077" as="sourcePoint" />
            <mxPoint x="1030" y="1077" as="targetPoint" />
          </mxGeometry>
        </mxCell>
        <mxCell id="mfoKoCKj8GL2P2GgwyJW-163" value="&lt;span style=&quot;font-size: 38px;&quot;&gt;Drug Classes&lt;/span&gt;" style="text;html=1;align=center;verticalAlign=middle;resizable=0;points=[];autosize=1;strokeColor=none;fillColor=none;fontSize=38;" vertex="1" parent="WIyWlLk6GJQsqaUBKTNV-1">
          <mxGeometry x="880" y="847" width="250" height="60" as="geometry" />
        </mxCell>
        <mxCell id="mfoKoCKj8GL2P2GgwyJW-165" value="&lt;font style=&quot;font-size: 38px;&quot;&gt;Protein&lt;/font&gt;" style="text;html=1;align=center;verticalAlign=middle;resizable=0;points=[];autosize=1;strokeColor=none;fillColor=none;fontSize=38;" vertex="1" parent="WIyWlLk6GJQsqaUBKTNV-1">
          <mxGeometry x="580" y="837" width="140" height="60" as="geometry" />
        </mxCell>
        <mxCell id="mfoKoCKj8GL2P2GgwyJW-170" value="New Links" style="text;html=1;align=center;verticalAlign=middle;resizable=0;points=[];autosize=1;strokeColor=none;fillColor=none;fontSize=38;" vertex="1" parent="WIyWlLk6GJQsqaUBKTNV-1">
          <mxGeometry x="730" y="1377" width="200" height="60" as="geometry" />
        </mxCell>
        <mxCell id="mfoKoCKj8GL2P2GgwyJW-173" value="" style="edgeStyle=orthogonalEdgeStyle;rounded=0;orthogonalLoop=1;jettySize=auto;html=1;exitX=1;exitY=0.75;exitDx=0;exitDy=0;entryX=0;entryY=0.5;entryDx=0;entryDy=0;fontSize=38;strokeWidth=9;" edge="1" parent="WIyWlLk6GJQsqaUBKTNV-1" target="mfoKoCKj8GL2P2GgwyJW-57">
          <mxGeometry relative="1" as="geometry">
            <mxPoint x="-19" y="-255" as="sourcePoint" />
            <mxPoint x="641" y="-120" as="targetPoint" />
          </mxGeometry>
        </mxCell>
        <mxCell id="mfoKoCKj8GL2P2GgwyJW-178" value="" style="swimlane;startSize=0;movable=0;resizable=0;rotatable=0;deletable=0;editable=0;locked=1;connectable=0;" vertex="1" parent="WIyWlLk6GJQsqaUBKTNV-1">
          <mxGeometry x="-1210" y="-600" width="2710" height="2170" as="geometry" />
        </mxCell>
        <mxCell id="mfoKoCKj8GL2P2GgwyJW-57" value="AMR Classes" style="rounded=0;whiteSpace=wrap;html=1;fontSize=38;fillColor=#a20025;fontColor=#ffffff;strokeColor=#6F0000;" vertex="1" parent="WIyWlLk6GJQsqaUBKTNV-1">
          <mxGeometry x="-100" y="-300" width="330" height="60" as="geometry" />
        </mxCell>
      </root>
    </mxGraphModel>
  </diagram>
</mxfile>
